Coordinates
version=1
nRows=17
nColumns=33
inDegrees=yes

Units are S.I. units (second, meters, Newtons, ...)
Angles are in degrees.

endheader
time	ground_thorax_rot_x	ground_thorax_rot_y	ground_thorax_rot_z	ground_thorax_tx	ground_thorax_ty	ground_thorax_tz	clav_prot_r	clav_elev_r	scapula_abduction_r	scapula_elevation_r	scapula_upward_rot_r	scapula_winging_r	shoulder_elv_r	plane_of_elev_r	axial_rot_r	elbow_flexion_r	pro_sup_r	wrist_flex_r	wrist_dev_r	clav_prot_l	clav_elev_l	scapula_abduction_l	scapula_elevation_l	scapula_upward_rot_l	scapula_winging_l	shoulder_elv_l	plane_of_elev_l	axial_rot_l	elbow_flexion_l	pro_sup_l	wrist_flex_l	wrist_dev_l	
5.3700	18.857204	35.897687	58.214673	-61.186415	774.579952	10.575901	12.728476	36.839183	32.869786	45.000000	-44.047202	-1162.748757	-3719.937641	149.035354	-121.485093	729.009504	26.532513	17.049955	11.192264	7.323281	-45.000000	-35.029081	45.000000	-45.000000	2615.860920	-2811.287970	14.583949	-72.281689	726.904286	28.925793	8.948318	-18.357683	
5.3800	18.865579	35.910714	58.155536	-61.660099	774.425485	10.560837	12.794719	36.916828	32.792587	45.000000	-43.830176	-1162.783959	-3719.992633	149.062120	-121.206739	729.041201	26.754378	17.054276	11.141690	7.427246	-45.000000	-35.062780	45.000000	-45.000000	2615.870627	-2811.315707	14.591396	-72.123481	726.868687	28.788853	9.009786	-18.388606	
5.3900	18.837592	35.934694	58.126936	-62.151177	774.266388	10.544731	12.969236	37.029888	32.670012	45.000000	-43.631142	-1162.805900	-3720.034984	149.067827	-120.932275	729.069033	26.967047	17.018956	11.088201	7.533949	-45.000000	-35.136426	45.000000	-45.000000	2615.882012	-2811.343576	14.592179	-71.936611	726.817995	28.648339	9.086313	-18.468679	
5.4000	18.865557	35.933125	58.037798	-62.684059	774.096144	10.527332	13.028629	37.101410	32.608796	45.000000	-43.457015	-1162.830538	-3720.065926	149.083149	-120.771169	729.107138	27.136986	17.023223	11.054468	7.583503	-45.000000	-35.165339	45.000000	-45.000000	2615.883699	-2811.354969	14.604279	-71.798716	726.787409	28.523105	9.134986	-18.498104	
5.4100	18.922697	35.916728	57.918657	-63.257974	773.916150	10.507626	13.040007	37.140070	32.590947	45.000000	-43.311967	-1162.859134	-3720.088685	149.103379	-120.675583	729.151158	27.270633	17.050472	11.036367	7.612113	-45.000000	-35.169180	45.000000	-45.000000	2615.887070	-2811.358496	14.628148	-71.675073	726.765951	28.406264	9.173798	-18.505111	
5.4200	18.993750	35.890667	57.780144	-63.875564	773.727598	10.484524	13.035937	37.174365	32.589319	45.000000	-43.193845	-1162.885163	-3720.096384	149.118601	-120.640491	729.199896	27.365980	17.079308	11.026453	7.614248	-45.000000	-35.170388	45.000000	-45.000000	2615.886274	-2811.351729	14.655527	-71.554775	726.750142	28.293614	9.204240	-18.507594	
5.4300	19.080035	35.856569	57.628679	-64.533483	773.534333	10.456759	13.009696	37.189013	32.618665	45.000000	-43.108852	-1162.918350	-3720.093975	149.133507	-120.636562	729.256192	27.426696	17.121399	11.023487	7.616044	-45.000000	-35.159476	45.000000	-45.000000	2615.891406	-2811.339667	14.691204	-71.426694	726.743903	28.180180	9.232007	-18.499529	
5.4400	19.157985	35.826029	57.479102	-65.226150	773.341705	10.423072	13.012153	37.213719	32.628128	45.000000	-43.031993	-1162.954002	-3720.082035	149.133375	-120.654096	729.308702	27.459004	17.148208	11.021222	7.610897	-45.000000	-35.171321	45.000000	-45.000000	2615.894718	-2811.323418	14.726903	-71.286132	726.739978	28.060006	9.266987	-18.508011	
5.4500	19.247646	35.794416	57.317633	-65.949197	773.155377	10.382440	12.999156	37.226609	32.644752	45.000000	-42.948967	-1163.003275	-3720.067029	149.135834	-120.680449	729.364983	27.466976	17.185432	11.023004	7.611890	-45.000000	-35.169036	45.000000	-45.000000	2615.902577	-2811.305679	14.775555	-71.137097	726.745290	27.929720	9.304344	-18.509520	
5.4600	19.337190	35.762426	57.151869	-66.698913	772.981118	10.334206	13.003769	37.240470	32.648374	45.000000	-42.863035	-1163.064079	-3720.050974	149.121069	-120.720195	729.417565	27.455831	17.213315	11.025242	7.602835	-45.000000	-35.186059	45.000000	-45.000000	2615.909025	-2811.285527	14.825721	-70.977495	726.753664	27.783354	9.351821	-18.522017	
5.4700	19.436438	35.725004	56.981132	-67.472596	772.824408	10.278280	13.001904	37.254516	32.661433	45.000000	-42.776281	-1163.124644	-3720.026650	149.108743	-120.762783	729.468803	27.431014	17.246143	11.028742	7.599446	-45.000000	-35.196815	45.000000	-45.000000	2615.916804	-2811.263496	14.879009	-70.805220	726.760197	27.614644	9.404866	-18.528163	
5.4800	19.544289	35.680481	56.798905	-68.268097	772.690273	10.215357	13.006065	37.269868	32.668503	45.000000	-42.666635	-1163.182814	-3720.005791	149.091726	-120.804542	729.504317	27.399910	17.274580	11.037963	7.592071	-45.000000	-35.224165	45.000000	-45.000000	2615.918386	-2811.243854	14.931014	-70.625602	726.754881	27.418558	9.472201	-18.536239	
5.4900	19.666257	35.626434	56.606446	-69.084109	772.583009	10.147006	13.001890	37.287646	32.695279	45.000000	-42.551168	-1163.239796	-3719.981888	149.086070	-120.829520	729.542373	27.366446	17.306099	11.044461	7.593012	-45.000000	-35.238610	45.000000	-45.000000	2615.917409	-2811.225066	14.987929	-70.421213	726.739570	27.185575	9.541892	-18.535236	
5.5000	19.789855	35.565293	56.417496	-69.919723	772.506102	10.075698	13.006084	37.301841	32.736686	45.000000	-42.469286	-1163.298201	-3719.954176	149.065597	-120.856649	729.576904	27.332067	17.337216	11.048923	7.594901	-45.000000	-35.261803	45.000000	-45.000000	2615.917496	-2811.205762	15.042676	-70.201055	726.717731	26.913602	9.625669	-18.533340	
5.5100	19.904457	35.501163	56.248997	-70.774787	772.462170	10.004604	13.016962	37.319456	32.793381	45.000000	-42.451770	-1163.346314	-3719.905172	149.034220	-120.899988	729.617316	27.296871	17.365777	11.043876	7.604804	-45.000000	-35.277222	45.000000	-45.000000	2615.922858	-2811.179269	15.094270	-69.970932	726.691818	26.599921	9.710222	-18.525688	
5.5200	20.008812	35.437289	56.095991	-71.649333	772.453162	9.937274	13.034998	37.319226	32.853778	45.000000	-42.482003	-1163.396954	-3719.848535	148.981941	-120.975245	729.655511	27.263746	17.397666	11.040129	7.617656	-45.000000	-35.295651	45.000000	-45.000000	2615.938003	-2811.149615	15.148772	-69.757623	726.669356	26.253218	9.804285	-18.516440	
5.5300	20.108198	35.372059	55.950263	-72.544081	772.480581	9.877091	13.052346	37.305614	32.926718	45.000000	-42.541088	-1163.456101	-3719.784281	148.925073	-121.068015	729.706469	27.236294	17.430909	11.029907	7.634232	-45.000000	-35.308186	45.000000	-45.000000	2615.960088	-2811.114615	15.210997	-69.552995	726.657077	25.880672	9.891197	-18.503805	
